<svg xmlns="http://www.w3.org/2000/svg" viewBox="0 0 512 512" width="512" height="512">
  <rect width="512" height="512" rx="128" fill="#0f172a"/>
  <defs>
    <linearGradient id="grad" x1="0%" y1="0%" x2="100%" y2="100%">
      <stop offset="0%" stop-color="#2563eb"/>
      <stop offset="100%" stop-color="#2dd4bf"/>
    </linearGradient>
  </defs>
  <rect x="64" y="64" width="384" height="384" rx="96" fill="url(#grad)"/>
  <path d="M224 160v160.75c-7.39-4.22-16.32-6.75-26-6.75-29.82 0-54 21.49-54 48s24.18 48 54 48 54-21.49 54-48V224h96v72.75c-7.39-4.22-16.32-6.75-26-6.75-29.82 0-54 21.49-54 48s24.18 48 54 48 54-21.49 54-48V160H224z" fill="#090d16"/>
</svg>
